<?xml version="1.0" encoding="utf-8"?>
<!-- Generator: Adobe Illustrator 23.0.6, SVG Export Plug-In . SVG Version: 6.00 Build 0)  -->
<svg version="1.1" id="Layer_1" xmlns="http://www.w3.org/2000/svg" xmlns:xlink="http://www.w3.org/1999/xlink" x="0px" y="0px"
	 viewBox="0 0 50 50" style="enable-background:new 0 0 50 50;" xml:space="preserve">
<style type="text/css">
	.st0{fill:#1877F2;}
	.st1{fill:#FFFFFF;}
</style>
<g>
	<path class="st0" d="M28.7,49.2c11.5-1.6,21-12.1,21-24.3c0-13.6-11-24.7-24.7-24.7S0.4,11.3,0.4,24.9c0,12.2,9,22.6,20.9,24.3V32
		H15"/>
	<path class="st1" d="M34.5,32l1-7.1h-6.9v-4.7c0-1.9,1-3.8,4-3.8h3.1v-6c0,0-2.8-0.5-5.5-0.5c-5.7,0-9.3,3.4-9.3,9.7v5.5h-6.2v7.1
		h6.4v17.2c1.2,0.2,2.6,0.3,3.8,0.3s2.6-0.2,3.8-0.3V32.2h5.9V32z"/>
</g>
</svg>
