<?xml version="1.0" encoding="utf-8"?>
<!-- Generator: Adobe Illustrator 23.0.6, SVG Export Plug-In . SVG Version: 6.00 Build 0)  -->
<svg version="1.1" id="Layer_1" xmlns="http://www.w3.org/2000/svg" xmlns:xlink="http://www.w3.org/1999/xlink" x="0px" y="0px"
	 viewBox="0 0 50 50" style="enable-background:new 0 0 50 50;" xml:space="preserve">
<style type="text/css">
	.st0{fill:#E70000;}
	.st1{fill:#FEFEFE;}
</style>
<g>
	<path class="st0" d="M48.5,13.9c-0.5-2-2.2-3.7-4.3-4.3c-3.9-1-19.1-1-19.1-1s-15.1,0-19.1,1c-2,0.5-3.7,2.2-4.3,4.3
		c-1,3.7-1,11.7-1,11.7s0,8,1,11.7c0.5,2,2.2,3.7,4.3,4.3c3.7,1,19.1,1,19.1,1s15.1,0,19.1-1c2-0.5,3.7-2.2,4.3-4.3
		c1-3.7,1-11.7,1-11.7S49.5,17.7,48.5,13.9z"/>
	<polygon class="st1" points="20.2,33 32.8,25.7 20.2,18.4 	"/>
</g>
</svg>
